<svg xmlns="http://www.w3.org/2000/svg" viewBox="0 0 640 400" font-family="Noto Sans, Arial, sans-serif">
<defs><marker id="a" markerWidth="8" markerHeight="8" refX="6" refY="4" orient="auto"><path d="M0 0 L8 4 L0 8z" fill="#8A949E"/></marker></defs>
<rect width="640" height="400" fill="#ffffff"/>
<text x="320" y="46" text-anchor="middle" font-size="22" font-weight="bold" fill="#2B3138">Target volume consensus</text>
<rect x="40" y="90" width="166" height="78" rx="10" fill="#1E5FA8" opacity="0.12" stroke="#1E5FA8" stroke-width="2"/>
<text x="123.0" y="129" text-anchor="middle" font-size="15" fill="#2B3138">15 expert contours</text>
<line x1="210" y1="129" x2="232" y2="129" stroke="#8A949E" stroke-width="2.5" marker-end="url(#a)"/>
<rect x="236" y="90" width="166" height="78" rx="10" fill="#3C9A2E" opacity="0.12" stroke="#3C9A2E" stroke-width="2"/>
<text x="319.0" y="129" text-anchor="middle" font-size="15" fill="#2B3138">Overlap maps</text>
<line x1="406" y1="129" x2="428" y2="129" stroke="#8A949E" stroke-width="2.5" marker-end="url(#a)"/>
<rect x="432" y="90" width="166" height="78" rx="10" fill="#D98A00" opacity="0.12" stroke="#D98A00" stroke-width="2"/>
<text x="515.0" y="129" text-anchor="middle" font-size="15" fill="#2B3138">Delphi consensus</text>
<rect x="110" y="230" width="90" height="62" rx="4" fill="none" stroke="#8A949E" stroke-width="2"/>
<path d="M125 280 l20 -35 l20 20 l25 -30" fill="none" stroke="#1E5FA8" stroke-width="3"/>
<rect x="225" y="230" width="90" height="62" rx="4" fill="none" stroke="#8A949E" stroke-width="2"/>
<path d="M240 280 l20 -35 l20 20 l25 -30" fill="none" stroke="#3C9A2E" stroke-width="3"/>
<rect x="340" y="230" width="90" height="62" rx="4" fill="none" stroke="#8A949E" stroke-width="2"/>
<path d="M355 280 l20 -35 l20 20 l25 -30" fill="none" stroke="#D98A00" stroke-width="3"/>
<rect x="455" y="230" width="90" height="62" rx="4" fill="none" stroke="#8A949E" stroke-width="2"/>
<path d="M470 280 l20 -35 l20 20 l25 -30" fill="none" stroke="#C8323F" stroke-width="3"/>
<text x="320" y="360" text-anchor="middle" font-size="15" fill="#8A949E">Skull base chordoma, 3 cases</text>
</svg>